<svg xmlns="http://www.w3.org/2000/svg" viewBox="3050 2132 9.775 10"><defs><style>.a{fill:#04277b;}.b{fill:#296aae;}</style></defs><g transform="translate(3044.5 2132)"><g transform="translate(5.5)"><path class="a" d="M281.2,30.7v1.412h1.412Z" transform="translate(-275.567 -30.073)"/><path class="b" d="M9.959,9.142l.826-2.722,2.389-2.389V2.556h-2.3a.263.263,0,0,1-.262-.262V0H5.5V10h7.683V7.818l-.8.8ZM6.665,1.477H9.871a.262.262,0,0,1,0,.523H6.665a.262.262,0,0,1,0-.523Zm0,1.577H9.871a.262.262,0,0,1,0,.523H6.665A.263.263,0,0,1,6.4,3.316.261.261,0,0,1,6.665,3.055Zm0,2.088a.262.262,0,0,1,0-.523H9.871a.262.262,0,0,1,0,.523Z" transform="translate(-5.5)"/><path class="a" d="M298.3,186.8l-2.7,2.7,1.159,1.159h0l2.689-2.7Z" transform="translate(-289.672 -182.983)"/><path class="a" d="M263.181,342.36l-.96-.96-.421,1.389Z" transform="translate(-256.563 -334.424)"/></g></g></svg>