<svg xmlns="http://www.w3.org/2000/svg" viewBox="0 0 10.702 9.548">
  <defs>
    <style>.a{fill:#e55f60;}</style>
  </defs>
  <path class="a" d="M9.6,9.548H1.1a1.122,1.122,0,0,1-.3-.041,1.076,1.076,0,0,1-.264-.113A1.1,1.1,0,0,1,0,8.472a1.069,1.069,0,0,1,.034-.284,1.116,1.116,0,0,1,.115-.28L4.4.547A1.112,1.112,0,0,1,4.586.307a1.07,1.07,0,0,1,.23-.171,1.11,1.11,0,0,1,1.069,0,1.077,1.077,0,0,1,.231.172A1.118,1.118,0,0,1,6.3.55l4.252,7.359a1.116,1.116,0,0,1,.115.28,1.069,1.069,0,0,1,.034.284,1.1,1.1,0,0,1-.533.922,1.076,1.076,0,0,1-.264.113A1.122,1.122,0,0,1,9.6,9.548ZM5.449,7.079a.711.711,0,1,0,.711.711A.712.712,0,0,0,5.449,7.079Zm0-4.737a.762.762,0,0,0-.76.82l.217,2.869a.545.545,0,0,0,1.087,0l.217-2.869a.762.762,0,0,0-.76-.82Z"/></svg>
