<svg xmlns="http://www.w3.org/2000/svg" viewBox="0 0 10 10"><defs><style>.a{fill:#296aae;}</style></defs><g transform="translate(3.636)"><path class="a" d="M192.091,0h-3.636a.455.455,0,0,0,0,.909h2.539l-4.679,4.679a.455.455,0,1,0,.643.643l4.679-4.679V4.091a.455.455,0,1,0,.909,0V.455A.455.455,0,0,0,192.091,0Z" transform="translate(-186.182)"/></g><g transform="translate(0 1.818)"><path class="a" d="M7.727,95.818a.455.455,0,0,0-.455.455v4.091H.909V94H5a.455.455,0,1,0,0-.909H.455A.455.455,0,0,0,0,93.546v7.273a.455.455,0,0,0,.455.455H7.727a.455.455,0,0,0,.455-.455V96.273A.455.455,0,0,0,7.727,95.818Z" transform="translate(0 -93.091)"/></g></svg>