<svg xmlns="http://www.w3.org/2000/svg" viewBox="0 0 11.844 11.844"><defs><style>.a{fill:#f2f2f3;}</style></defs><path class="a" d="M5.922,0a5.922,5.922,0,1,0,5.922,5.922A5.922,5.922,0,0,0,5.922,0ZM7.581,10.433c-.034-.463-.072-1.037-.074-1.27a1.123,1.123,0,0,0-.465-.922C8.752,8.1,9.566,7.153,9.624,5.9a2.339,2.339,0,0,0-.736-1.842A10.119,10.119,0,0,0,8.837,2.6,2.683,2.683,0,0,0,7.3,3.168a4.78,4.78,0,0,0-2.616,0A2.511,2.511,0,0,0,3.143,2.6a1.844,1.844,0,0,0-.052,1.46A1.857,1.857,0,0,0,2.26,5.872,2.877,2.877,0,0,0,5.126,8.253a.522.522,0,0,0-.431.439,1.056,1.056,0,0,1-1.53-.464c-.455-.563-.863-.4-.888-.391a.071.071,0,0,0-.04.061c.023.121.271.245.283.255a2.106,2.106,0,0,1,.537.831c.482.792,1.6.463,1.612.47,0,.069-.008.652-.014,1.105a4.812,4.812,0,1,1,2.928-.125Z"/></svg>