<svg xmlns="http://www.w3.org/2000/svg" width="12.218" height="10" viewBox="0 0 12.218 10">
  <path id="twitter" d="M4.559,10a10.484,10.484,0,0,1-1.619-.129A7.6,7.6,0,0,1,.724,9.066L0,8.67l.784-.258c.857-.282,1.378-.456,2.023-.73a2.691,2.691,0,0,1-1.384-1.6l-.182-.554.15.023a2.719,2.719,0,0,1-.341-.42A2.578,2.578,0,0,1,.613,3.6l.034-.483.289.112A2.7,2.7,0,0,1,.675,2.49,2.8,2.8,0,0,1,.972.609L1.224.146l.337.4A6.2,6.2,0,0,0,5.579,2.813a2.4,2.4,0,0,1,.146-1.277A2.39,2.39,0,0,1,6.7.422,2.919,2.919,0,0,1,8.391.006a2.706,2.706,0,0,1,1.663.686,5.583,5.583,0,0,0,.609-.2c.133-.05.285-.107.474-.173l.7-.241-.455,1.3.093-.006.745-.034-.441.6c-.025.034-.032.044-.041.058-.036.054-.08.12-.684.928a1.139,1.139,0,0,0-.213.742,7.015,7.015,0,0,1-.383,2.822,4.993,4.993,0,0,1-1.34,1.985A5.92,5.92,0,0,1,6.311,9.829,8.638,8.638,0,0,1,4.559,10Zm0,0" transform="translate(0)"/>
</svg>
