<svg xmlns="http://www.w3.org/2000/svg" width="9.394" height="13" viewBox="0 0 9.394 13">
  <g id="bitcoin-logo" transform="translate(-65.893)">
    <path id="Path_204" data-name="Path 204" d="M74.917,6.82a2.346,2.346,0,0,0-1.367-.8A1.852,1.852,0,0,0,74.573,4a1.992,1.992,0,0,0-.285-.894,1.79,1.79,0,0,0-.645-.609,3.548,3.548,0,0,0-.883-.352,6.965,6.965,0,0,0-1.094-.176V0h-1.2V1.914q-.312,0-.953.016V0h-1.2V1.969q-.258.008-.758.008l-1.656-.008V3.25h.867a.621.621,0,0,1,.7.531V6.024a.794.794,0,0,1,.125.008h-.125V9.172a.417.417,0,0,1-.453.4h-.867L65.893,11h1.563l.43,0,.422,0V13h1.2V11.031q.328.008.953.008V13h1.2V11.008a9.353,9.353,0,0,0,1.137-.117,4.626,4.626,0,0,0,.949-.27,2.562,2.562,0,0,0,.758-.457,2.157,2.157,0,0,0,.5-.7,2.956,2.956,0,0,0,.254-.977A2.314,2.314,0,0,0,74.917,6.82ZM69.534,3.336l.309,0,.422-.008q.168,0,.453.02a4.311,4.311,0,0,1,.48.062,2.676,2.676,0,0,1,.43.129A1.164,1.164,0,0,1,72,3.754a1.085,1.085,0,0,1,.238.328,1.024,1.024,0,0,1,.1.457,1.087,1.087,0,0,1-.07.4.751.751,0,0,1-.211.3,2.137,2.137,0,0,1-.289.211,1.324,1.324,0,0,1-.379.144q-.23.055-.4.086a3.293,3.293,0,0,1-.43.043l-.391.016q-.133,0-.363,0l-.27,0v-2.4h0Zm3.285,5.32a1.111,1.111,0,0,1-.191.313,1.085,1.085,0,0,1-.309.234,2.647,2.647,0,0,1-.371.164,2.987,2.987,0,0,1-.434.109q-.254.047-.446.066t-.457.031q-.266.011-.414.012t-.375,0l-.289,0V6.937l.371-.008q.309-.008.5-.008t.539.023a4.607,4.607,0,0,1,.578.07,3.8,3.8,0,0,1,.512.145,1.484,1.484,0,0,1,.449.238,1.172,1.172,0,0,1,.289.359,1.116,1.116,0,0,1,.043.9Z"/>
  </g>
</svg>
