<svg xmlns="http://www.w3.org/2000/svg" width="14.007" height="12.256" viewBox="0 0 14.007 12.256">
  <g id="wechat" transform="translate(0 -32)">
    <g id="Group_1307" data-name="Group 1307" transform="translate(0 32)">
      <g id="Group_1306" data-name="Group 1306" transform="translate(0 0)">
        <path id="Path_198" data-name="Path 198" d="M5.253,32C2.351,32,0,33.96,0,36.377a4.144,4.144,0,0,0,2.006,3.43l-.692,1.385L3.2,40.384a5.963,5.963,0,0,0,1.274.317,3.665,3.665,0,0,1-.1-.822c0-2.414,2.356-4.377,5.253-4.377a6.354,6.354,0,0,1,.78.053A5.093,5.093,0,0,0,5.253,32ZM3.5,35.283a.657.657,0,1,1,.657-.657A.657.657,0,0,1,3.5,35.283Zm3.5,0a.657.657,0,1,1,.657-.657A.657.657,0,0,1,7,35.283Z" transform="translate(0 -32)"/>
      </g>
    </g>
    <g id="Group_1309" data-name="Group 1309" transform="translate(5.253 36.377)">
      <g id="Group_1308" data-name="Group 1308" transform="translate(0 0)">
        <path id="Path_199" data-name="Path 199" d="M200.754,195.5c0-1.934-1.96-3.5-4.377-3.5S192,193.568,192,195.5s1.96,3.5,4.377,3.5a5.348,5.348,0,0,0,1.142-.136l2.359,1.011-.816-1.631A3.3,3.3,0,0,0,200.754,195.5Zm-5.69-.219a.657.657,0,1,1,.657-.657A.657.657,0,0,1,195.064,195.283Zm2.626,0a.657.657,0,1,1,.657-.657A.657.657,0,0,1,197.69,195.283Z" transform="translate(-192 -192)"/>
      </g>
    </g>
  </g>
</svg>
