<svg xmlns="http://www.w3.org/2000/svg" width="11.273" height="10.967" viewBox="0 0 11.273 10.967">
  <path id="github_1_" data-name="github (1)" d="M5.637,0A5.583,5.583,0,0,0,0,5.483a5.72,5.72,0,0,0,4.316,5.483V9.153A1.416,1.416,0,0,1,3.6,9.135a1.379,1.379,0,0,1-.8-.641c-.128-.21-.355-.438-.592-.421l-.058-.64a1.363,1.363,0,0,1,1.218.733.726.726,0,0,0,.424.353.911.911,0,0,0,.555-.047A1.491,1.491,0,0,1,4.729,7.7h0A2.609,2.609,0,0,1,2.443,6.13a2.461,2.461,0,0,1,.4-2.413.085.085,0,0,0,.022-.067,2.051,2.051,0,0,1,.066-1.4A2.325,2.325,0,0,1,4.184,2.7l.158.093c.066.038.045.016.112.012a4.909,4.909,0,0,1,1.183-.162,4.93,4.93,0,0,1,1.2.166l.051.005s.014,0,.045-.021c1.144-.674,1.1-.454,1.41-.551a2.086,2.086,0,0,1,.064,1.4A2.578,2.578,0,0,1,8.83,6.13,2.608,2.608,0,0,1,6.545,7.7h0a1.391,1.391,0,0,1,.413,1v2.265a5.72,5.72,0,0,0,4.316-5.483A5.583,5.583,0,0,0,5.637,0Zm0,0"/>
</svg>
