<svg xmlns="http://www.w3.org/2000/svg" width="12.007" height="11.257" viewBox="0 0 12.007 11.257">
  <path id="reddit" d="M.756,6.871A2.86,2.86,0,0,0,.7,7.387c0,2.134,2.414,3.87,5.324,3.87S11.3,9.521,11.3,7.387a2.861,2.861,0,0,0-.053-.516A1.4,1.4,0,1,0,9.657,4.586,6.313,6.313,0,0,0,6.3,3.528L6.976.917l1.518.531A1.416,1.416,0,1,0,8.655.759L6.486,0,5.574,3.534A6.436,6.436,0,0,0,2.35,4.586,1.4,1.4,0,1,0,.756,6.871ZM8.138,5.628A1.055,1.055,0,1,1,7.083,6.683,1.057,1.057,0,0,1,8.138,5.628Zm-.15,3.108.3.635a5.311,5.311,0,0,1-2.261.478,5.527,5.527,0,0,1-2.308-.478l.3-.636A5.09,5.09,0,0,0,7.987,8.736ZM3.87,5.628A1.055,1.055,0,1,1,2.814,6.683,1.057,1.057,0,0,1,3.87,5.628Zm0,0"/>
</svg>
