<svg xmlns="http://www.w3.org/2000/svg" width="12.167" height="12.166" viewBox="0 0 12.167 12.166">
  <path id="Path_203" data-name="Path 203" d="M12.113,6.531a1.084,1.084,0,0,0-1.366-.7l-1.092.355c-.242-.745-.5-1.538-.741-2.281l1.092-.355a1.084,1.084,0,1,0-.67-2.061l-1.092.355L7.889.756a1.083,1.083,0,1,0-2.061.67l.355,1.092L3.9,3.259,3.548,2.167a1.084,1.084,0,0,0-2.061.669l.355,1.093L.715,4.3a1.084,1.084,0,0,0,.669,2.061L2.511,5.99l.741,2.281-1.127.367A1.084,1.084,0,0,0,2.794,10.7l1.128-.367.367,1.127a1.084,1.084,0,0,0,2.061-.669L5.983,9.662l2.281-.741.367,1.127a1.084,1.084,0,0,0,2.061-.669l-.367-1.127L11.417,7.9A1.084,1.084,0,0,0,12.113,6.531ZM5.313,7.6c-.243-.745-.5-1.538-.741-2.281l2.281-.741L7.595,6.86Z" transform="translate(0 -0.007)"/>
</svg>
