<svg xmlns="http://www.w3.org/2000/svg" viewBox="0 0 14 14"><defs><style>.a{fill:#296aae;}</style></defs><g transform="translate(-0.001)"><g transform="translate(0.001)"><path class="a" d="M7,0a7,7,0,1,0,7,7A7,7,0,0,0,7,0Zm3.328,5.037L9.664,5.7,8.31,4.349,7.8,4.862,9.15,6.216,5.831,9.535,4.477,8.182,3.964,8.7l1.353,1.353-.331.331-.006-.006a.262.262,0,0,1-.167.12l-1.262.281a.262.262,0,0,1-.313-.313L3.519,9.2a.263.263,0,0,1,.12-.167l-.006-.006L8.975,3.684a.2.2,0,0,1,.284,0l1.07,1.069A.2.2,0,0,1,10.328,5.037Z" transform="translate(-0.001)"/></g></g></svg>