<svg xmlns="http://www.w3.org/2000/svg" width="8.65" height="10.568" viewBox="0 0 8.65 10.568">
  <g id="file" transform="translate(-86.9)">
    <path id="Path_200" data-name="Path 200" d="M204.545,108.4h-.309v7.592a.916.916,0,0,1-.915.915H197.7v.281a.584.584,0,0,0,.584.584h6.26a.584.584,0,0,0,.584-.584v-8.2A.583.583,0,0,0,204.545,108.4Z" transform="translate(-109.577 -107.204)"/>
    <path id="Path_201" data-name="Path 201" d="M90.613,9.372h3.13a.584.584,0,0,0,.584-.584V.584A.584.584,0,0,0,93.743,0H89.572V.193a.569.569,0,0,1,0,.062v1.6a.823.823,0,0,1-.822.822h-1.6l-.051,0h-.2V8.788a.584.584,0,0,0,.584.584h3.129Zm.118-1.984H88.69a.276.276,0,1,1,0-.552h2.042a.276.276,0,1,1,0,.552Zm2.042-1.408H88.69a.276.276,0,1,1,0-.552h4.082a.276.276,0,1,1,0,.552ZM88.69,3.932h4.082a.276.276,0,1,1,0,.552H88.69a.276.276,0,1,1,0-.552Z" transform="translate(0)"/>
    <path id="Path_202" data-name="Path 202" d="M87.793,3.136h1.6a.49.49,0,0,0,.486-.486v-1.6A.246.246,0,0,0,89.635.8a.239.239,0,0,0-.172.073L87.618,2.717A.246.246,0,0,0,87.793,3.136Z" transform="translate(-0.639 -0.791)"/>
  </g>
</svg>
