<svg xmlns="http://www.w3.org/2000/svg" width="10.622" height="10.733" viewBox="0 0 10.622 10.733">
  <path id="Path_208" data-name="Path 208" d="M5.255,0A5.309,5.309,0,0,0,0,5.367a5.309,5.309,0,0,0,5.255,5.367A5.03,5.03,0,0,0,8.833,9.28a.457.457,0,0,0,0-.671.514.514,0,0,0-.671-.056h0a4.335,4.335,0,0,1-6.205-.28L4.193,4.64V6.317c0,.783.335,1.062.559,1.118.28.056.671,0,1.062-.671l1.23-2.013c.224,0,.224-.056.28-.112V5.646a1.709,1.709,0,0,0,.839,1.621,1.572,1.572,0,0,0,1.565-.056,2.2,2.2,0,0,0,.894-1.845h0A5.441,5.441,0,0,0,5.255,0ZM9.168,6.429h0a.662.662,0,0,1-.559.056c-.224-.112-.335-.391-.335-.783V4.472c0-.559-.224-.95-.615-1.062-.615-.168-1.118.615-1.286.894L5.255,6.094V3.913c0-.5-.168-.839-.5-.894-.168-.112-.5-.056-.783.391L1.454,7.435a4.517,4.517,0,0,1-.5-2.068,4.355,4.355,0,0,1,4.3-4.361,4.355,4.355,0,0,1,4.3,4.361h0A1.107,1.107,0,0,1,9.168,6.429Z" fill="#17181b" fill-rule="evenodd"/>
</svg>
