<svg xmlns="http://www.w3.org/2000/svg" width="16.275" height="16.275" viewBox="0 0 16.275 16.275">
  <path id="Path_24" data-name="Path 24" d="M8.137,0a8.138,8.138,0,1,0,8.138,8.137A8.138,8.138,0,0,0,8.137,0ZM9.831,12.612q-.628.248-1,.378a2.644,2.644,0,0,1-.869.13,1.733,1.733,0,0,1-1.183-.371,1.2,1.2,0,0,1-.421-.942,3.421,3.421,0,0,1,.031-.454c.021-.154.055-.328.1-.523l.524-1.852c.046-.178.086-.347.118-.5a2.233,2.233,0,0,0,.047-.436.672.672,0,0,0-.146-.494.83.83,0,0,0-.56-.138,1.47,1.47,0,0,0-.417.062c-.141.043-.264.083-.364.121l.138-.57q.515-.21.985-.359a2.91,2.91,0,0,1,.889-.15,1.7,1.7,0,0,1,1.166.365,1.213,1.213,0,0,1,.409.948q0,.121-.028.425a2.844,2.844,0,0,1-.1.559l-.521,1.846c-.043.148-.081.318-.115.507a2.681,2.681,0,0,0-.05.431.619.619,0,0,0,.165.5.922.922,0,0,0,.57.134,1.653,1.653,0,0,0,.431-.067,2.452,2.452,0,0,0,.349-.117ZM9.739,5.118a1.245,1.245,0,0,1-.878.339,1.258,1.258,0,0,1-.882-.339A1.082,1.082,0,0,1,7.612,4.3a1.093,1.093,0,0,1,.367-.824,1.249,1.249,0,0,1,.882-.342,1.235,1.235,0,0,1,.878.342,1.11,1.11,0,0,1,0,1.646Z" fill="#e7903e"/>
</svg>
