<svg xmlns="http://www.w3.org/2000/svg" viewBox="2580 4882 10 10"><defs><style>.a{fill:#8a91a4;}</style></defs><g transform="translate(2580 4882)"><path class="a" d="M5,0a5,5,0,1,0,5,5A5,5,0,0,0,5,0ZM6.041,7.749q-.386.152-.616.232a1.625,1.625,0,0,1-.534.08,1.065,1.065,0,0,1-.727-.228.736.736,0,0,1-.259-.579,2.1,2.1,0,0,1,.019-.279c.013-.095.034-.2.062-.321l.322-1.138c.028-.109.053-.213.072-.309a1.372,1.372,0,0,0,.029-.268.413.413,0,0,0-.09-.3.51.51,0,0,0-.344-.085.9.9,0,0,0-.256.038c-.087.027-.162.051-.224.074l.085-.35q.316-.129.605-.221A1.788,1.788,0,0,1,4.732,4a1.045,1.045,0,0,1,.716.224.745.745,0,0,1,.251.582q0,.074-.017.261a1.748,1.748,0,0,1-.064.343L5.3,6.545c-.026.091-.05.2-.071.312a1.647,1.647,0,0,0-.031.265.381.381,0,0,0,.1.308.566.566,0,0,0,.35.082,1.015,1.015,0,0,0,.265-.041A1.507,1.507,0,0,0,6.127,7.4Zm-.057-4.6a.765.765,0,0,1-.54.208A.773.773,0,0,1,4.9,3.145a.665.665,0,0,1-.226-.5A.672.672,0,0,1,4.9,2.133a.767.767,0,0,1,.542-.21.759.759,0,0,1,.54.21.682.682,0,0,1,0,1.011Z"/></g></svg>