<svg xmlns="http://www.w3.org/2000/svg" viewBox="0 0 778.89 140.39"><defs><style>.cls-1{fill:#2899e5;}.cls-2{fill:#595959;}.cls-3{fill:#606060;}</style></defs><title>testnet explorer metadium lockup</title><g id="Layer_2" data-name="Layer 2"><g id="Layer_1-2" data-name="Layer 1"><path class="cls-1" d="M.15,69.92C.14,55,.56,40.08,0,25.19-.47,12.08,9.69.22,25,.13q44.73-.29,89.46,0c15.18.06,25.66,10.58,25.81,26.38q.39,43.62,0,87.23c-.15,17.95-13.18,27-27.12,26.66-29.8-.7-59.63-.2-89.45-.26A23.15,23.15,0,0,1,.19,116.88C.06,101.23.16,85.57.15,69.92ZM89,101.27c4.49,5.37,8.73,10.31,12.8,15.4,2.24,2.79,4.38,4.56,7.91,1.88s2.5-5.17.08-8c-3.43-3.93-6.51-8.18-10.05-12-2.51-2.72-2.46-4.71-.21-7.69,7.75-10.29,9.92-21.87,6.89-34.39C102.46,40.26,87,27,71,26.08,51.66,24.93,35.26,35,28.85,52c-6.3,16.67-1.25,35.74,12.57,46.37C56.35,109.83,72.21,110.11,89,101.27Z"/><path class="cls-1" d="M89.66,50.47V63.21A2.6,2.6,0,0,1,87,65.77H47.6A2.61,2.61,0,0,1,45,63.21V50.47a2.61,2.61,0,0,1,2.64-2.56H87A2.6,2.6,0,0,1,89.66,50.47Z"/><rect class="cls-1" x="57.63" y="70.18" width="19.36" height="19.36" rx="2.77"/><path class="cls-2" d="M196.73,13.5V26.11h11.43v6.07H196.73V55.86c0,5.44,1.54,8.53,6,8.53a17.39,17.39,0,0,0,4.63-.55l.36,6a19.4,19.4,0,0,1-7.07,1.09c-3.72,0-6.72-1.18-8.62-3.36-2.27-2.36-3.08-6.26-3.08-11.43v-24h-6.81V26.11h6.81V15.58Z"/><path class="cls-2" d="M221,49.51c.18,10.8,7.07,15.24,15.05,15.24a28.86,28.86,0,0,0,12.16-2.27l1.36,5.72A35.55,35.55,0,0,1,235,70.92c-13.52,0-21.59-8.89-21.59-22.14s7.8-23.67,20.59-23.67c14.33,0,18.14,12.61,18.14,20.68a30.47,30.47,0,0,1-.27,3.72Zm23.4-5.71c.09-5.08-2.09-13-11.07-13-8.07,0-11.61,7.44-12.24,13Z"/><path class="cls-2" d="M261,61.85A20.94,20.94,0,0,0,271.47,65c5.8,0,8.53-2.9,8.53-6.53,0-3.81-2.27-5.9-8.17-8.07-7.89-2.81-11.61-7.17-11.61-12.43,0-7.08,5.72-12.88,15.15-12.88a22,22,0,0,1,10.8,2.72l-2,5.81a17.07,17.07,0,0,0-9-2.54c-4.72,0-7.35,2.72-7.35,6,0,3.63,2.63,5.26,8.35,7.44,7.62,2.9,11.52,6.71,11.52,13.25,0,7.71-6,13.15-16.42,13.15a25.11,25.11,0,0,1-12.34-3Z"/><path class="cls-2" d="M307.57,13.5V26.11H319v6.07H307.57V55.86c0,5.44,1.54,8.53,6,8.53a17.31,17.31,0,0,0,4.62-.55l.37,6a19.42,19.42,0,0,1-7.08,1.09c-3.72,0-6.71-1.18-8.62-3.36-2.26-2.36-3.08-6.26-3.08-11.43v-24H293V26.11h6.8V15.58Z"/><path class="cls-2" d="M328,38c0-4.54-.09-8.25-.36-11.88h7.07l.46,7.25h.18a16.13,16.13,0,0,1,14.51-8.25c6.08,0,15.51,3.63,15.51,18.69V70h-8V44.7c0-7.07-2.63-13-10.16-13a11.34,11.34,0,0,0-10.7,8.17,11.19,11.19,0,0,0-.55,3.71V70h-8Z"/><path class="cls-2" d="M382.77,49.51c.18,10.8,7.07,15.24,15.06,15.24A28.84,28.84,0,0,0,410,62.48l1.36,5.72a35.55,35.55,0,0,1-14.6,2.72c-13.52,0-21.59-8.89-21.59-22.14s7.8-23.67,20.59-23.67c14.33,0,18.14,12.61,18.14,20.68a30.47,30.47,0,0,1-.27,3.72Zm23.4-5.71c.09-5.08-2.09-13-11.07-13-8.07,0-11.61,7.44-12.24,13Z"/><path class="cls-2" d="M433.38,13.5V26.11h11.43v6.07H433.38V55.86c0,5.44,1.54,8.53,6,8.53a17.39,17.39,0,0,0,4.63-.55l.36,6a19.42,19.42,0,0,1-7.08,1.09c-3.72,0-6.71-1.18-8.61-3.36-2.27-2.36-3.09-6.26-3.09-11.43v-24h-6.8V26.11h6.8V15.58Z"/><path class="cls-2" d="M477.46,49.51c.19,10.8,7.08,15.24,15.06,15.24a28.86,28.86,0,0,0,12.16-2.27L506,68.2a35.57,35.57,0,0,1-14.61,2.72c-13.51,0-21.59-8.89-21.59-22.14s7.81-23.67,20.6-23.67c14.33,0,18.14,12.61,18.14,20.68a30.47,30.47,0,0,1-.27,3.72Zm23.41-5.71c.09-5.08-2.09-13-11.07-13-8.07,0-11.61,7.44-12.24,13Z"/><path class="cls-2" d="M521.91,26.11l6.26,9.43c1.63,2.45,3,4.72,4.45,7.17h.27c1.45-2.63,2.9-4.9,4.35-7.26l6.17-9.34H552l-15,21.22L552.48,70h-9.07L537,60.12c-1.72-2.54-3.17-5-4.72-7.62h-.18c-1.45,2.63-3,5-4.62,7.62L521.1,70h-8.8l15.6-22.4L513,26.11Z"/><path class="cls-2" d="M560.19,40.44c0-5.62-.18-10.16-.36-14.33H567l.37,7.53h.18c3.26-5.36,8.43-8.53,15.6-8.53,10.61,0,18.6,9,18.6,22.31,0,15.79-9.62,23.59-20,23.59-5.81,0-10.89-2.54-13.52-6.89h-.18V88h-7.89Zm7.89,11.7a17.29,17.29,0,0,0,.37,3.27,12.31,12.31,0,0,0,12,9.34c8.44,0,13.33-6.89,13.33-17,0-8.8-4.62-16.33-13.06-16.33a12.73,12.73,0,0,0-12.06,9.89,12.5,12.5,0,0,0-.55,3.26Z"/><path class="cls-2" d="M611.8,5.6h8V70h-8Z"/><path class="cls-2" d="M672.94,47.7c0,16.23-11.25,23.31-21.86,23.31C639.2,71,630,62.3,630,48.42c0-14.69,9.62-23.31,21.78-23.31C664.41,25.11,672.94,34.27,672.94,47.7Zm-34.83.45c0,9.62,5.53,16.87,13.33,16.87,7.62,0,13.34-7.16,13.34-17,0-7.44-3.72-16.87-13.16-16.87S638.11,39.8,638.11,48.15Z"/><path class="cls-2" d="M683,39.8c0-5.17-.09-9.61-.36-13.69h7l.27,8.61h.37c2-5.89,6.8-9.61,12.15-9.61a8.72,8.72,0,0,1,2.27.27v7.53a12.08,12.08,0,0,0-2.72-.27c-5.63,0-9.62,4.26-10.71,10.25a22.67,22.67,0,0,0-.36,3.72V70H683Z"/><path class="cls-2" d="M716.21,49.51c.18,10.8,7.07,15.24,15.06,15.24a28.84,28.84,0,0,0,12.15-2.27l1.36,5.72a35.55,35.55,0,0,1-14.6,2.72c-13.52,0-21.59-8.89-21.59-22.14s7.8-23.67,20.59-23.67c14.33,0,18.14,12.61,18.14,20.68a30.47,30.47,0,0,1-.27,3.72Zm23.4-5.71c.09-5.08-2.08-13-11.07-13-8.07,0-11.61,7.44-12.24,13Z"/><path class="cls-2" d="M757.21,39.8c0-5.17-.09-9.61-.37-13.69h7l.27,8.61h.36c2-5.89,6.81-9.61,12.16-9.61a8.72,8.72,0,0,1,2.27.27v7.53a12.15,12.15,0,0,0-2.72-.27c-5.63,0-9.62,4.26-10.71,10.25a22.67,22.67,0,0,0-.36,3.72V70h-7.89Z"/><path class="cls-3" d="M246.37,93.54v6.15a1.24,1.24,0,0,1-1.24,1.24H239a1.23,1.23,0,0,1-1.23-1.24V93.54A1.23,1.23,0,0,1,239,92.3h6.16A1.24,1.24,0,0,1,246.37,93.54Zm8.55,8.25h-6.16a1.23,1.23,0,0,0-1.23,1.23v14.82a1.23,1.23,0,0,0,1.23,1.23h6.16a1.24,1.24,0,0,0,1.24-1.23V103A1.24,1.24,0,0,0,254.92,101.79Zm18.33,0h-4.64a3.31,3.31,0,0,1-3.31-3.31V93.54a1.23,1.23,0,0,0-1.24-1.24h-6.15a1.23,1.23,0,0,0-1.24,1.24v6.15a1.23,1.23,0,0,0,1.24,1.24h2.25l.38,0h2a3.31,3.31,0,0,1,3.31,3.31v13.62a1.23,1.23,0,0,0,1.24,1.23h6.15a1.23,1.23,0,0,0,1.24-1.23V103A1.23,1.23,0,0,0,273.25,101.79Zm17.82,0h-4.64a3.31,3.31,0,0,1-3.31-3.31V93.54a1.23,1.23,0,0,0-1.24-1.24h-6.16a1.23,1.23,0,0,0-1.23,1.24v6.15a1.23,1.23,0,0,0,1.23,1.24H278l.38,0h2a3.31,3.31,0,0,1,3.31,3.31v13.62a1.23,1.23,0,0,0,1.23,1.23h6.16a1.24,1.24,0,0,0,1.24-1.23V103A1.24,1.24,0,0,0,291.07,101.79Z"/><path class="cls-3" d="M312.93,102.12V104a.17.17,0,0,0,.32.08,5.27,5.27,0,0,1,9.68.71,5.64,5.64,0,0,1,5.33-3.58c3.37,0,5.33,2.42,5.33,6.52v11.09a.42.42,0,0,1-.42.42H331a.42.42,0,0,1-.42-.42V108c0-2.74-1.12-4.14-3.33-4.14-2.49,0-3.93,1.82-3.93,5v10a.42.42,0,0,1-.42.42h-2.14a.42.42,0,0,1-.42-.42v-11c0-2.56-1.2-4-3.3-4-2.46,0-4,2-4,5.16v9.82a.42.42,0,0,1-.42.42h-2.15a.42.42,0,0,1-.42-.42v-16.7a.42.42,0,0,1,.42-.42h2A.42.42,0,0,1,312.93,102.12Z"/><path class="cls-3" d="M353.48,111.35H341.89a.42.42,0,0,0-.42.45c.2,3.18,2.23,5.23,5.21,5.23a4.66,4.66,0,0,0,4.51-3,.42.42,0,0,1,.55-.21l1.68.75a.41.41,0,0,1,.22.54,7.27,7.27,0,0,1-7.17,4.5c-5,0-8-3.19-8-9s2.95-9.4,8-9.4c4.74,0,7.47,2.7,7.47,8v1.69A.42.42,0,0,1,353.48,111.35Zm-2.59-2.81c0-3.23-1.65-4.91-4.53-4.91-3.09,0-4.84,2-4.91,5.3h9.44Z"/><path class="cls-3" d="M371.29,114.5a4.63,4.63,0,0,1,2.46-4.14,17.92,17.92,0,0,1,5.89-1.43l3.26-.39v-.28c0-3.23-1.16-4.53-3.86-4.53-2.25,0-3.69,1.13-4,3.13a.42.42,0,0,1-.41.35h-2.35a.43.43,0,0,1-.42-.48c.46-3.31,3.19-5.45,7.11-5.45,4.8,0,6.91,2.17,6.91,7.3v4.73a23.74,23.74,0,0,0,.45,5.41.42.42,0,0,1-.4.52h-2.21a.43.43,0,0,1-.42-.37c-.08-.64-.15-1.36-.2-2.1a.17.17,0,0,0-.31-.08,6,6,0,0,1-5.61,3C373.64,119.66,371.29,117.63,371.29,114.5Zm11.65-2.91v-.87l-4.77.7c-2.6.38-3.72,1.29-3.72,3s1.3,2.77,3.44,2.77C380.94,117.2,382.94,115,382.94,111.59Z"/><path class="cls-3" d="M390.87,110.47c0-5.4,3.08-9.19,7.47-9.19a5.4,5.4,0,0,1,4.85,2.5.17.17,0,0,0,.31-.09V95.36a.41.41,0,0,1,.41-.42h2.15a.42.42,0,0,1,.42.42v23.46a.42.42,0,0,1-.42.42h-2a.42.42,0,0,1-.42-.42v-2.14a.17.17,0,0,0-.31-.08,5.78,5.78,0,0,1-5.37,3.06C393.74,119.66,390.87,116,390.87,110.47Zm12.7.42v-.81c0-3.82-1.83-6.17-4.78-6.17s-4.77,2.42-4.77,6.56,1.79,6.56,4.77,6.56S403.57,114.64,403.57,110.89Z"/><path class="cls-3" d="M413.38,101.7h2.15a.42.42,0,0,1,.42.42v16.7a.42.42,0,0,1-.42.42h-2.15a.42.42,0,0,1-.42-.42v-16.7A.42.42,0,0,1,413.38,101.7Z"/><path class="cls-3" d="M421.73,112.89V102.12a.42.42,0,0,1,.42-.42h2.15a.41.41,0,0,1,.41.42v10.42c0,2.95,1.27,4.56,3.58,4.56,2.81,0,4.7-2.39,4.7-6v-9a.42.42,0,0,1,.42-.42h2.14a.42.42,0,0,1,.42.42v16.7a.42.42,0,0,1-.42.42h-2a.42.42,0,0,1-.42-.42V116.7a.17.17,0,0,0-.31-.08,5.9,5.9,0,0,1-5.13,3C423.31,119.66,421.73,117,421.73,112.89Z"/><rect class="cls-3" x="412.75" y="94.94" width="3.4" height="3.4" rx="0.42"/><path class="cls-3" d="M363.26,104.16h3.8a.42.42,0,0,0,.42-.42v-1.62a.42.42,0,0,0-.42-.42h-3.8a.16.16,0,0,1-.16-.17V95.36a.42.42,0,0,0-.42-.42h-2.15a.42.42,0,0,0-.42.42v4.17h0a2.17,2.17,0,0,1-2.17,2.17h-.67a.42.42,0,0,0-.42.42v1.62a.42.42,0,0,0,.42.42H360a.16.16,0,0,1,.16.16V114c0,3.26,1,5.57,4.77,5.57a9.15,9.15,0,0,0,2.28-.23.41.41,0,0,0,.32-.41v-2a.33.33,0,0,0-.4-.32,6.37,6.37,0,0,1-1.42.15c-1.79,0-2.56-.88-2.56-2.88v-9.55A.16.16,0,0,1,363.26,104.16Z"/><path class="cls-3" d="M445.09,102.12V104a.17.17,0,0,0,.32.08,5.27,5.27,0,0,1,9.68.71,5.65,5.65,0,0,1,5.33-3.58c3.37,0,5.33,2.42,5.33,6.52v11.09a.42.42,0,0,1-.42.42h-2.14a.42.42,0,0,1-.42-.42V108c0-2.74-1.12-4.14-3.33-4.14-2.49,0-3.93,1.82-3.93,5v10a.42.42,0,0,1-.42.42H453a.42.42,0,0,1-.42-.42v-11c0-2.56-1.19-4-3.3-4-2.45,0-4,2-4,5.16v9.82a.42.42,0,0,1-.42.42h-2.14a.42.42,0,0,1-.42-.42v-16.7a.42.42,0,0,1,.42-.42h2A.42.42,0,0,1,445.09,102.12Z"/><path class="cls-3" d="M201.77,110.72A10.14,10.14,0,0,1,200,117a5.74,5.74,0,0,1-4.84,2.38,6,6,0,0,1-5-2.29l-.15,2H187.3V94.81h2.92v9a5.94,5.94,0,0,1,4.88-2.19A5.77,5.77,0,0,1,200,104a10.43,10.43,0,0,1,1.78,6.44Zm-2.92-.34a7.89,7.89,0,0,0-1.16-4.61,3.81,3.81,0,0,0-3.31-1.62,4.29,4.29,0,0,0-4.16,2.68v7.39a4.42,4.42,0,0,0,4.19,2.69,3.79,3.79,0,0,0,3.27-1.63A8.37,8.37,0,0,0,198.85,110.38Z"/><path class="cls-3" d="M210.87,114.79l4-12.81H218l-6.88,19.73C210,124.55,208.35,126,206,126l-.55,0-1.09-.21v-2.37l.79.07a3.92,3.92,0,0,0,2.32-.6,4.4,4.4,0,0,0,1.36-2.2l.65-1.74-6.1-16.9h3.19Z"/></g></g></svg>