<svg xmlns="http://www.w3.org/2000/svg" viewBox="0 0 139.67 139.63"><defs><style>.cls-1{fill:#fff;}.cls-2{fill:#fc5f52;}</style></defs><title>mainnet explorer</title><g id="Layer_2" data-name="Layer 2"><g id="Layer_1-2" data-name="Layer 1"><rect class="cls-1" x="11.64" y="17.33" width="116.13" height="110.74"/><path class="cls-2" d="M.15,69.54C.14,54.71.56,39.86,0,25.05-.46,12,9.64.22,24.84.13q44.49-.29,89,0c15.1.06,25.53,10.52,25.67,26.24q.39,43.37,0,86.75c-.14,17.85-13.1,26.84-27,26.52-29.65-.7-59.31-.21-89-.27A23,23,0,0,1,.19,116.25C.06,100.68.16,85.11.15,69.54Zm88.34,31.18C93,106.06,97.17,111,101.22,116c2.22,2.77,4.35,4.53,7.86,1.87s2.49-5.14.08-7.91c-3.41-3.91-6.47-8.13-10-11.93-2.5-2.7-2.45-4.68-.21-7.65,7.7-10.23,9.86-21.75,6.85-34.2C101.9,40,86.57,26.89,70.58,25.94c-19.2-1.15-35.52,8.88-41.89,25.76-6.26,16.57-1.24,35.54,12.5,46.11C56.05,109.23,71.82,109.5,88.49,100.72Z"/><path class="cls-2" d="M85.35,67.44H73.57a8.39,8.39,0,0,1-8.4-8.39V46.5A3.14,3.14,0,0,0,62,43.36H46.41a3.14,3.14,0,0,0-3.13,3.14V62.12a3.13,3.13,0,0,0,3.13,3.14h5.73c.31,0,.62-.06,1-.06h5.1a8.4,8.4,0,0,1,8.4,8.4V87a3.13,3.13,0,0,0,3.14,3.13H85.35A3.14,3.14,0,0,0,88.49,87V70.57A3.14,3.14,0,0,0,85.35,67.44Z"/></g></g></svg>