<svg xmlns="http://www.w3.org/2000/svg" viewBox="0 0 824.58 139.63"><defs><style>.cls-1{fill:#fc5f52;}.cls-2{fill:#595959;}.cls-3{fill:#606060;}</style></defs><title>mainnet explorer metadium lockup</title><g id="Layer_2" data-name="Layer 2"><g id="Layer_1-2" data-name="Layer 1"><path class="cls-1" d="M.15,69.54C.14,54.71.56,39.86,0,25.05-.46,12,9.64.22,24.84.13q44.49-.29,89,0c15.1.06,25.53,10.52,25.67,26.24q.39,43.37,0,86.75c-.14,17.85-13.1,26.84-27,26.52-29.65-.7-59.31-.21-89-.27A23,23,0,0,1,.19,116.25C.06,100.68.16,85.11.15,69.54Zm88.34,31.18C93,106.06,97.17,111,101.22,116c2.22,2.77,4.35,4.53,7.86,1.87s2.49-5.14.08-7.91c-3.41-3.91-6.47-8.13-10-11.93-2.5-2.7-2.45-4.68-.21-7.65,7.7-10.23,9.86-21.75,6.85-34.2C101.9,40,86.57,26.89,70.58,25.94c-19.2-1.15-35.52,8.88-41.89,25.76-6.26,16.57-1.24,35.54,12.5,46.11C56.05,109.23,71.82,109.5,88.49,100.72Z"/><path class="cls-1" d="M85.35,67.44H73.57a8.39,8.39,0,0,1-8.4-8.39V46.5A3.14,3.14,0,0,0,62,43.36H46.41a3.14,3.14,0,0,0-3.13,3.14V62.12a3.13,3.13,0,0,0,3.13,3.14h5.73c.31,0,.62-.06,1-.06h5.1a8.4,8.4,0,0,1,8.4,8.4V87a3.13,3.13,0,0,0,3.14,3.13H85.35A3.14,3.14,0,0,0,88.49,87V70.57A3.14,3.14,0,0,0,85.35,67.44Z"/><path class="cls-2" d="M182.73,36.65c0-4.53-.09-8.25-.36-11.88h7l.36,7.07H190c2.45-4.17,6.53-8.07,13.78-8.07a13,13,0,0,1,12.43,8.8h.18a18.25,18.25,0,0,1,4.9-5.72A15,15,0,0,1,231,23.77c5.8,0,14.42,3.81,14.42,19.05V68.67h-7.8V43.82c0-8.44-3.08-13.52-9.52-13.52-4.54,0-8.08,3.36-9.44,7.26a13.25,13.25,0,0,0-.63,4V68.67h-7.81V42.37c0-7-3.08-12.07-9.16-12.07-5,0-8.61,4-9.88,8a10.86,10.86,0,0,0-.64,3.9V68.67h-7.8Z"/><path class="cls-2" d="M282.69,68.67l-.63-5.53h-.28a16.33,16.33,0,0,1-13.42,6.53c-8.89,0-13.43-6.26-13.43-12.61,0-10.61,9.44-16.42,26.4-16.33v-.9c0-3.63-1-10.16-10-10.16a22,22,0,0,0-11.43,3.26l-1.81-5.26a27.24,27.24,0,0,1,14.42-3.9c13.43,0,16.69,9.16,16.69,18V58.15A61.15,61.15,0,0,0,290,68.67Zm-1.18-22.4c-8.71-.19-18.59,1.36-18.59,9.89,0,5.17,3.44,7.61,7.52,7.61a10.92,10.92,0,0,0,10.62-7.34,8.45,8.45,0,0,0,.45-2.54Z"/><path class="cls-2" d="M311,12.43c.09,2.72-1.9,4.9-5.08,4.9a4.75,4.75,0,0,1-4.81-4.9,4.87,4.87,0,0,1,5-5A4.74,4.74,0,0,1,311,12.43ZM302.1,68.67V24.77h8v43.9Z"/><path class="cls-2" d="M323.33,36.65c0-4.53-.1-8.25-.37-11.88H330l.45,7.25h.18a16.16,16.16,0,0,1,14.52-8.25c6.08,0,15.51,3.63,15.51,18.69V68.67h-8V43.36c0-7.07-2.63-13-10.16-13a11.35,11.35,0,0,0-10.71,8.17,11.49,11.49,0,0,0-.54,3.72V68.67h-8Z"/><path class="cls-2" d="M373.67,36.65c0-4.53-.09-8.25-.36-11.88h7.07l.46,7.25H381a16.13,16.13,0,0,1,14.51-8.25c6.08,0,15.51,3.63,15.51,18.69V68.67h-8V43.36c0-7.07-2.63-13-10.16-13a11.34,11.34,0,0,0-10.7,8.17,11.21,11.21,0,0,0-.55,3.72V68.67h-8Z"/><path class="cls-2" d="M428.46,48.17c.18,10.8,7.07,15.24,15.05,15.24a28.86,28.86,0,0,0,12.16-2.27L457,66.86a35.55,35.55,0,0,1-14.6,2.72c-13.52,0-21.59-8.89-21.59-22.13s7.8-23.68,20.59-23.68c14.33,0,18.14,12.61,18.14,20.68a30.3,30.3,0,0,1-.27,3.72Zm23.4-5.71c.09-5.08-2.09-13-11.07-13-8.07,0-11.61,7.43-12.24,13Z"/><path class="cls-2" d="M479.07,12.16V24.77H490.5v6.08H479.07V54.52c0,5.44,1.54,8.53,6,8.53a17.31,17.31,0,0,0,4.62-.55l.37,6A19.42,19.42,0,0,1,483,69.58c-3.72,0-6.71-1.18-8.62-3.36-2.26-2.35-3.08-6.26-3.08-11.43V30.85h-6.8V24.77h6.8V14.24Z"/><path class="cls-2" d="M523.15,48.17c.19,10.8,7.08,15.24,15.06,15.24a28.89,28.89,0,0,0,12.16-2.27l1.36,5.72a35.57,35.57,0,0,1-14.61,2.72c-13.51,0-21.59-8.89-21.59-22.13s7.81-23.68,20.6-23.68c14.33,0,18.14,12.61,18.14,20.68a30.3,30.3,0,0,1-.27,3.72Zm23.41-5.71c.09-5.08-2.09-13-11.07-13-8.07,0-11.61,7.43-12.25,13Z"/><path class="cls-2" d="M567.6,24.77l6.26,9.43c1.63,2.45,3,4.72,4.45,7.17h.27c1.45-2.63,2.9-4.9,4.35-7.26l6.17-9.34h8.62L582.75,46l15.42,22.68H589.1l-6.44-9.88c-1.72-2.55-3.18-5-4.72-7.63h-.18c-1.45,2.64-3,5-4.63,7.63l-6.35,9.88H558l15.6-22.4-14.88-21.5Z"/><path class="cls-2" d="M605.88,39.1c0-5.62-.18-10.16-.36-14.33h7.16l.37,7.53h.18c3.26-5.35,8.43-8.53,15.6-8.53,10.61,0,18.6,9,18.6,22.31,0,15.79-9.62,23.59-20,23.59-5.81,0-10.89-2.54-13.52-6.89h-.18V86.63h-7.89Zm7.89,11.7a18.18,18.18,0,0,0,.36,3.27,12.33,12.33,0,0,0,12,9.34c8.44,0,13.33-6.89,13.33-17,0-8.8-4.62-16.33-13.06-16.33A12.73,12.73,0,0,0,614.32,40a12.57,12.57,0,0,0-.55,3.26Z"/><path class="cls-2" d="M657.49,4.27h8v64.4h-8Z"/><path class="cls-2" d="M718.63,46.36c0,16.24-11.25,23.31-21.86,23.31-11.88,0-21-8.71-21-22.59,0-14.69,9.62-23.31,21.77-23.31C710.1,23.77,718.63,32.93,718.63,46.36Zm-34.83.45c0,9.62,5.53,16.87,13.33,16.87,7.62,0,13.34-7.16,13.34-17,0-7.44-3.72-16.87-13.16-16.87S683.8,38.47,683.8,46.81Z"/><path class="cls-2" d="M728.7,38.47c0-5.18-.09-9.62-.37-13.7h7l.27,8.62H736c2-5.9,6.81-9.62,12.16-9.62a8.72,8.72,0,0,1,2.27.27v7.53a12.15,12.15,0,0,0-2.72-.27C742,31.3,738,35.56,737,41.55a22.67,22.67,0,0,0-.36,3.72v23.4H728.7Z"/><path class="cls-2" d="M761.9,48.17C762.08,59,769,63.41,777,63.41a28.84,28.84,0,0,0,12.15-2.27l1.36,5.72a35.55,35.55,0,0,1-14.6,2.72c-13.52,0-21.59-8.89-21.59-22.13s7.8-23.68,20.59-23.68C789.2,23.77,793,36.38,793,44.45a30.3,30.3,0,0,1-.27,3.72Zm23.4-5.71c.09-5.08-2.09-13-11.07-13-8.07,0-11.61,7.43-12.24,13Z"/><path class="cls-2" d="M802.9,38.47c0-5.18-.09-9.62-.37-13.7h7l.27,8.62h.36c2-5.9,6.81-9.62,12.16-9.62a8.72,8.72,0,0,1,2.27.27v7.53a12.15,12.15,0,0,0-2.72-.27c-5.63,0-9.62,4.26-10.71,10.25a22.67,22.67,0,0,0-.36,3.72v23.4H802.9Z"/><path class="cls-3" d="M241,88.4v6.16a1.23,1.23,0,0,1-1.23,1.23h-6.16a1.24,1.24,0,0,1-1.24-1.23V88.4a1.25,1.25,0,0,1,1.24-1.24h6.16A1.24,1.24,0,0,1,241,88.4Zm8.56,8.25h-6.16a1.25,1.25,0,0,0-1.24,1.24V112.7a1.25,1.25,0,0,0,1.24,1.24h6.16a1.24,1.24,0,0,0,1.23-1.24V97.89A1.24,1.24,0,0,0,249.54,96.65Zm18.33,0h-4.64a3.31,3.31,0,0,1-3.31-3.31V88.4a1.25,1.25,0,0,0-1.24-1.24h-6.16a1.24,1.24,0,0,0-1.23,1.24v6.16a1.23,1.23,0,0,0,1.23,1.23h2.26l.37,0h2a3.31,3.31,0,0,1,3.31,3.31V112.7a1.24,1.24,0,0,0,1.23,1.24h6.16a1.25,1.25,0,0,0,1.24-1.24V97.89A1.25,1.25,0,0,0,267.87,96.65Zm17.82,0H281a3.32,3.32,0,0,1-3.31-3.31V88.4a1.24,1.24,0,0,0-1.23-1.24h-6.16a1.24,1.24,0,0,0-1.23,1.24v6.16a1.23,1.23,0,0,0,1.23,1.23h2.26l.37,0h2a3.31,3.31,0,0,1,3.31,3.31V112.7a1.25,1.25,0,0,0,1.24,1.24h6.16a1.24,1.24,0,0,0,1.23-1.24V97.89A1.24,1.24,0,0,0,285.69,96.65Z"/><path class="cls-3" d="M307.55,97v1.89a.16.16,0,0,0,.31.07,5.27,5.27,0,0,1,9.68.71,5.67,5.67,0,0,1,5.34-3.58c3.36,0,5.33,2.42,5.33,6.53v11.08a.42.42,0,0,1-.42.42h-2.14a.41.41,0,0,1-.42-.42V102.84c0-2.73-1.13-4.14-3.34-4.14-2.49,0-3.93,1.83-3.93,5v10a.41.41,0,0,1-.41.42H315.4a.42.42,0,0,1-.42-.42v-11c0-2.56-1.19-4-3.29-4-2.46,0-4,2-4,5.16v9.82a.42.42,0,0,1-.42.42h-2.14a.42.42,0,0,1-.42-.42V97a.42.42,0,0,1,.42-.42h2A.42.42,0,0,1,307.55,97Z"/><path class="cls-3" d="M348.1,106.21H336.5a.43.43,0,0,0-.42.46c.21,3.18,2.23,5.22,5.21,5.22a4.67,4.67,0,0,0,4.52-3,.41.41,0,0,1,.55-.2l1.68.74a.42.42,0,0,1,.22.55,7.28,7.28,0,0,1-7.18,4.49c-5,0-8-3.19-8-9s2.94-9.4,8-9.4c4.73,0,7.47,2.7,7.47,8v1.68A.42.42,0,0,1,348.1,106.21Zm-2.6-2.81c0-3.22-1.65-4.91-4.52-4.91-3.09,0-4.84,2-4.91,5.3h9.43Z"/><path class="cls-3" d="M365.91,109.37a4.62,4.62,0,0,1,2.45-4.14,17.76,17.76,0,0,1,5.9-1.44l3.26-.39v-.28c0-3.22-1.16-4.52-3.86-4.52-2.26,0-3.7,1.13-4,3.12a.42.42,0,0,1-.42.35h-2.34a.42.42,0,0,1-.42-.48c.45-3.31,3.19-5.45,7.11-5.45,4.8,0,6.91,2.18,6.91,7.3v4.73a23.68,23.68,0,0,0,.45,5.41.42.42,0,0,1-.41.52h-2.21a.41.41,0,0,1-.41-.36c-.09-.64-.16-1.37-.2-2.11a.16.16,0,0,0-.31-.07,6,6,0,0,1-5.61,3C368.26,114.52,365.91,112.49,365.91,109.37Zm11.64-2.91v-.88l-4.77.7c-2.59.39-3.71,1.3-3.71,3s1.29,2.77,3.43,2.77C375.55,112.07,377.55,109.86,377.55,106.46Z"/><path class="cls-3" d="M385.48,105.33c0-5.4,3.09-9.19,7.48-9.19a5.37,5.37,0,0,1,4.84,2.5.17.17,0,0,0,.31-.08V90.22a.42.42,0,0,1,.42-.42h2.14a.42.42,0,0,1,.42.42v23.46a.41.41,0,0,1-.42.42h-2a.41.41,0,0,1-.42-.42v-2.14a.17.17,0,0,0-.32-.07,5.75,5.75,0,0,1-5.37,3C388.36,114.52,385.48,110.84,385.48,105.33Zm12.7.42V105c0-3.83-1.82-6.18-4.77-6.18s-4.77,2.42-4.77,6.56,1.79,6.56,4.77,6.56S398.18,109.51,398.18,105.75Z"/><path class="cls-3" d="M408,96.56h2.14a.42.42,0,0,1,.42.42v16.7a.42.42,0,0,1-.42.42H408a.42.42,0,0,1-.42-.42V97A.42.42,0,0,1,408,96.56Z"/><path class="cls-3" d="M416.35,107.75V97a.42.42,0,0,1,.42-.42h2.14a.42.42,0,0,1,.42.42V107.4c0,2.95,1.26,4.56,3.58,4.56,2.8,0,4.7-2.38,4.7-6V97a.42.42,0,0,1,.42-.42h2.14a.42.42,0,0,1,.42.42v16.7a.42.42,0,0,1-.42.42h-2a.42.42,0,0,1-.42-.42v-2.11a.16.16,0,0,0-.31-.08,5.89,5.89,0,0,1-5.12,3C417.93,114.52,416.35,111.86,416.35,107.75Z"/><rect class="cls-3" x="407.37" y="89.8" width="3.4" height="3.4" rx="0.42"/><path class="cls-3" d="M357.88,99h3.8a.42.42,0,0,0,.42-.42V97a.42.42,0,0,0-.42-.42h-3.8a.17.17,0,0,1-.17-.16V90.22a.42.42,0,0,0-.42-.42h-2.14a.42.42,0,0,0-.42.42v4.17h0a2.16,2.16,0,0,1-2.16,2.17h-.67a.42.42,0,0,0-.42.42V98.6a.42.42,0,0,0,.42.42h2.67a.16.16,0,0,1,.17.17v9.65c0,3.26,1,5.58,4.77,5.58a9.5,9.5,0,0,0,2.27-.23.44.44,0,0,0,.33-.41v-2a.33.33,0,0,0-.41-.33,6.31,6.31,0,0,1-1.42.15c-1.79,0-2.56-.87-2.56-2.87V99.19A.17.17,0,0,1,357.88,99Z"/><path class="cls-3" d="M439.71,97v1.89a.17.17,0,0,0,.32.07,5.27,5.27,0,0,1,9.68.71A5.65,5.65,0,0,1,455,96.07c3.36,0,5.33,2.42,5.33,6.53v11.08a.42.42,0,0,1-.42.42h-2.14a.42.42,0,0,1-.42-.42V102.84c0-2.73-1.12-4.14-3.33-4.14-2.5,0-3.93,1.83-3.93,5v10a.42.42,0,0,1-.42.42h-2.15a.42.42,0,0,1-.42-.42v-11c0-2.56-1.19-4-3.29-4-2.46,0-4,2-4,5.16v9.82a.41.41,0,0,1-.42.42h-2.14a.42.42,0,0,1-.42-.42V97a.42.42,0,0,1,.42-.42h2A.42.42,0,0,1,439.71,97Z"/><path class="cls-3" d="M196.39,105.58a10.2,10.2,0,0,1-1.81,6.3,5.76,5.76,0,0,1-4.83,2.37,6,6,0,0,1-5-2.29l-.14,2h-2.68V89.67h2.92v9.06a5.9,5.9,0,0,1,4.88-2.2,5.82,5.82,0,0,1,4.89,2.35,10.51,10.51,0,0,1,1.78,6.45Zm-2.93-.33a7.87,7.87,0,0,0-1.15-4.61A3.82,3.82,0,0,0,189,99a4.28,4.28,0,0,0-4.15,2.69v7.39a4.4,4.4,0,0,0,4.18,2.68,3.8,3.8,0,0,0,3.27-1.62A8.41,8.41,0,0,0,193.46,105.25Z"/><path class="cls-3" d="M205.48,109.66l4-12.81h3.13l-6.87,19.73q-1.59,4.26-5.07,4.26l-.55,0-1.09-.2v-2.37l.79.06a3.87,3.87,0,0,0,2.31-.6,4.37,4.37,0,0,0,1.37-2.19l.65-1.74L198,96.85h3.19Z"/></g></g></svg>