<svg xmlns="http://www.w3.org/2000/svg" viewBox="0 0 140.44 140.39"><defs><style>.cls-1{fill:#fff;}.cls-2{fill:#2899e5;}</style></defs><title>testnet explorer</title><g id="Layer_2" data-name="Layer 2"><g id="Layer_1-2" data-name="Layer 1"><rect class="cls-1" x="15.29" y="17.34" width="115.31" height="110.4"/><path class="cls-2" d="M.15,69.92C.14,55,.56,40.08,0,25.19-.47,12.08,9.69.22,25,.13q44.73-.29,89.46,0c15.18.06,25.66,10.58,25.81,26.38q.39,43.62,0,87.23c-.15,17.95-13.18,27-27.12,26.66-29.8-.7-59.63-.2-89.45-.26A23.15,23.15,0,0,1,.19,116.88C.06,101.23.16,85.57.15,69.92ZM89,101.27c4.49,5.37,8.73,10.31,12.8,15.4,2.24,2.79,4.38,4.56,7.91,1.88s2.5-5.17.08-8c-3.43-3.93-6.51-8.18-10.05-12-2.51-2.72-2.46-4.71-.21-7.69,7.75-10.29,9.92-21.87,6.89-34.39C102.46,40.26,87,27,71,26.08,51.66,24.93,35.26,35,28.85,52c-6.3,16.67-1.25,35.74,12.57,46.37C56.35,109.83,72.21,110.11,89,101.27Z"/><path class="cls-2" d="M89.66,50.47V63.21A2.6,2.6,0,0,1,87,65.77H47.6A2.61,2.61,0,0,1,45,63.21V50.47a2.61,2.61,0,0,1,2.64-2.56H87A2.6,2.6,0,0,1,89.66,50.47Z"/><rect class="cls-2" x="57.63" y="70.18" width="19.36" height="19.36" rx="2.77"/></g></g></svg>