<svg xmlns="http://www.w3.org/2000/svg" viewBox="1418 521 10 10">
  <defs>
    <style>
      .cls-1 {
        fill: #8a91a4;
      }
    </style>
  </defs>
  <g id="counterclockwise-rotation" transform="translate(1417.994 520.999)">
    <g id="Layer_2_15_" transform="translate(0.006 0.001)">
      <g id="Group_7" data-name="Group 7" transform="translate(0 0)">
        <path id="Path_14" data-name="Path 14" class="cls-1" d="M8.969,1.954A5,5,0,0,0,1.99,1.014L1.61.632C1.5.523,1.4.56,1.387.713L1.262,2.078a.225.225,0,0,0,.253.253L2.88,2.208c.153-.014.19-.114.081-.223l-.4-.4A4.2,4.2,0,0,1,8.252,7.661a4.226,4.226,0,0,1-.69.666A4.2,4.2,0,0,1,.837,4.533a.4.4,0,1,0-.8-.09A5,5,0,0,0,8.052,8.964a5.032,5.032,0,0,0,.822-.794,5,5,0,0,0,.1-6.216Z" transform="translate(-0.006 -0.001)"/>
        <path id="Path_15" data-name="Path 15" class="cls-1" d="M208.473,81.15a.325.325,0,0,0-.325.325v3.243l2.966,1.533a.325.325,0,0,0,.439-.14.326.326,0,0,0-.14-.439L208.8,84.322V81.475A.326.326,0,0,0,208.473,81.15Z" transform="translate(-203.67 -79.404)"/>
      </g>
    </g>
  </g>
</svg>
