<svg xmlns="http://www.w3.org/2000/svg" viewBox="0 0 8.876 8.877"><defs><style>.a{fill:#f2f2f3;}</style></defs><path class="a" d="M8.506,3.7H5.363a.175.175,0,0,1-.185-.185V.37A.349.349,0,0,0,4.808,0h-.74A.349.349,0,0,0,3.7.37V3.513a.175.175,0,0,1-.185.185H.37a.349.349,0,0,0-.37.37v.74a.349.349,0,0,0,.37.37H3.513a.175.175,0,0,1,.185.185V8.506a.349.349,0,0,0,.37.37h.74a.349.349,0,0,0,.37-.37V5.363a.175.175,0,0,1,.185-.185H8.506a.349.349,0,0,0,.37-.37v-.74A.349.349,0,0,0,8.506,3.7Z" transform="translate(0 0)"/></svg>