<?xml version="1.0" encoding="iso-8859-1"?>
<!-- Generator: Adobe Illustrator 19.0.0, SVG Export Plug-In . SVG Version: 6.00 Build 0)  -->
<svg version="1.1" id="Capa_1" xmlns="http://www.w3.org/2000/svg" xmlns:xlink="http://www.w3.org/1999/xlink" x="0px" y="0px"
	 viewBox="0 0 512 512" style="enable-background:new 0 0 512 512;" xml:space="preserve">
<path style="fill:#355382;" d="M467,512H256l-36.563-40.313l-1.875-160.375L256,256l80.624-104.063l136-8.438L512,256v211
	C512,491.814,491.814,512,467,512z"/>
<path style="fill:#FFDA45;" d="M256,256l-42.188,39.375L149.124,353.5l-83.5,1.875L0,256V45C0,20.186,20.186,0,45,0h211
	l40.313,33.75v136.938L256,256z"/>
<path style="fill:#1EA1E3;" d="M421,226c0-24.899-20.098-45-45-45s-45,20.101-45,45c0,11.4,4.2,21.901,11.4,30h-83.588h-0.938H256
	v-86.4c-8.101,7.2-18.6,11.4-30,11.4c-24.902,0-45-20.099-45-45s20.098-45,45-45c11.4,0,21.899,4.2,30,11.4V0h71.25H467
	c24.814,0,45,20.186,45,45v211H409.6C416.8,247.901,421,237.4,421,226z"/>
<path style="fill:#CF0404;" d="M91,286c0,24.901,20.098,45,45,45s45-20.099,45-45c0-11.4-4.2-21.899-11.4-30H256v86.4
	c8.101-7.2,18.6-11.4,30-11.4c24.899,0,45,20.099,45,45s-20.101,45-45,45c-11.4,0-21.899-4.2-30-11.4V512H45
	c-24.814,0-45-20.186-45-45V256h102.4C95.2,264.101,91,274.6,91,286z"/>
<g>
</g>
<g>
</g>
<g>
</g>
<g>
</g>
<g>
</g>
<g>
</g>
<g>
</g>
<g>
</g>
<g>
</g>
<g>
</g>
<g>
</g>
<g>
</g>
<g>
</g>
<g>
</g>
<g>
</g>
</svg>
