<svg xmlns="http://www.w3.org/2000/svg" viewBox="0 0 10.904 10.904">
  <defs>
    <style>
      .cls-1 {
        fill: #f2f2f3;
      }
    </style>
  </defs>
  <g id="settings" transform="translate(0 0)">
    <path id="Path_89" data-name="Path 89" class="cls-1" d="M6.815,164.089a.2.2,0,0,0,.195-.195v-.779a.2.2,0,0,0-.195-.195H6.6a.586.586,0,0,1-.545-.377c-.021-.054-.043-.108-.067-.161a.586.586,0,0,1,.117-.653l.152-.153a.2.2,0,0,0,0-.275l-.55-.55a.2.2,0,0,0-.276,0l-.152.152a.585.585,0,0,1-.654.117q-.079-.036-.161-.067a.586.586,0,0,1-.376-.545v-.214A.2.2,0,0,0,3.894,160H3.115a.2.2,0,0,0-.195.195v.214a.586.586,0,0,1-.377.545c-.054.021-.108.043-.161.067a.585.585,0,0,1-.653-.117l-.153-.152a.2.2,0,0,0-.275,0l-.55.55a.195.195,0,0,0,0,.276l.152.152a.586.586,0,0,1,.117.653q-.036.079-.067.161a.586.586,0,0,1-.545.377H.195a.2.2,0,0,0-.195.195v.779a.2.2,0,0,0,.195.195H.409a.586.586,0,0,1,.545.377c.021.054.043.108.067.161a.586.586,0,0,1-.117.653l-.152.153a.2.2,0,0,0,0,.275l.55.55a.195.195,0,0,0,.276,0l.152-.152a.586.586,0,0,1,.654-.117q.079.036.161.067a.586.586,0,0,1,.376.545v.214a.2.2,0,0,0,.195.195h.779a.2.2,0,0,0,.195-.195V166.6a.586.586,0,0,1,.377-.545c.054-.021.108-.043.161-.067a.585.585,0,0,1,.653.117l.153.152a.2.2,0,0,0,.275,0l.55-.55a.195.195,0,0,0,0-.276l-.152-.152a.586.586,0,0,1-.117-.654q.036-.079.067-.161a.586.586,0,0,1,.545-.376Zm-1.559-.551c0,.035,0,.07-.006.105s-.008.076-.013.114a2.078,2.078,0,0,1-.293.8.615.615,0,0,1-.1.128,2.309,2.309,0,0,1-.5.36h0c-.033.017-.065.032-.1.047s-.05.024-.076.034-.055.019-.082.03-.053.019-.08.027-.069.019-.1.027l-.056.013c-.049.01-.1.017-.144.022l-.019,0c-.058.006-.117.009-.172.009-.032,0-.06,0-.09-.006-.046,0-.091,0-.136-.009a1.858,1.858,0,0,1-.2-.039l-.01,0a1.754,1.754,0,0,1,0-3.4,1.785,1.785,0,0,1,.189-.035l.066-.008c.042,0,.083-.007.125-.008.019,0,.039,0,.058,0a1.739,1.739,0,0,1,1.044.348l.032.024.072.06.058.053c.016.015.032.03.047.046s.057.06.084.092l.018.02a1.726,1.726,0,0,1,.175.255l.007.014a1.723,1.723,0,0,1,.086.182c.011.027.019.054.03.081s.026.078.037.119.018.063.024.095c.01.048.018.1.024.148s.009.093.011.14c0,.026,0,.051,0,.078s0,.023,0,.034Zm0,0" transform="translate(0 -156.106)"/>
    <path id="Path_90" data-name="Path 90" class="cls-1" d="M344.184,160.5c.008.02.014.039.021.057C344.2,160.534,344.192,160.515,344.184,160.5Zm0,0" transform="translate(-335.807 -156.59)"/>
    <path id="Path_91" data-name="Path 91" class="cls-1" d="M344.2,237.152c-.007.019-.013.039-.021.057C344.191,237.19,344.2,237.171,344.2,237.152Zm0,0" transform="translate(-335.807 -231.38)"/>
    <path id="Path_92" data-name="Path 92" class="cls-1" d="M339.8,151.2c.013.025.025.051.037.078C339.825,151.249,339.814,151.223,339.8,151.2Zm0,0" transform="translate(-331.531 -147.519)"/>
    <path id="Path_93" data-name="Path 93" class="cls-1" d="M347.626,228.559c0,.01,0,.02-.008.03C347.621,228.579,347.623,228.569,347.626,228.559Zm0,0" transform="translate(-339.157 -222.996)"/>
    <path id="Path_94" data-name="Path 94" class="cls-1" d="M276.559,100.063l.03.008Zm0,0" transform="translate(-269.828 -97.628)"/>
    <path id="Path_95" data-name="Path 95" class="cls-1" d="M208.5,102.974l.057-.021Zm0,0" transform="translate(-203.422 -100.447)"/>
    <path id="Path_96" data-name="Path 96" class="cls-1" d="M347.617,170.215c0,.01,0,.019.008.03C347.622,170.235,347.62,170.225,347.617,170.215Zm0,0" transform="translate(-339.157 -166.072)"/>
    <path id="Path_97" data-name="Path 97" class="cls-1" d="M293.672,106.672c.026.013.052.024.078.037Zm0,0" transform="translate(-286.525 -104.076)"/>
    <path id="Path_98" data-name="Path 98" class="cls-1" d="M302.1,111.305c.029.018.058.034.087.053C302.157,111.339,302.127,111.322,302.1,111.305Zm0,0" transform="translate(-294.745 -108.596)"/>
    <path id="Path_99" data-name="Path 99" class="cls-1" d="M310.7,117.168c.026.02.053.038.078.058C310.756,117.206,310.729,117.188,310.7,117.168Zm0,0" transform="translate(-303.141 -114.316)"/>
    <path id="Path_100" data-name="Path 100" class="cls-1" d="M328.441,134.1l.058.078C328.479,134.15,328.462,134.123,328.441,134.1Zm0,0" transform="translate(-320.447 -130.834)"/>
    <path id="Path_101" data-name="Path 101" class="cls-1" d="M285.152,102.953c.02.007.039.013.057.021Zm0,0" transform="translate(-278.212 -100.447)"/>
    <path id="Path_102" data-name="Path 102" class="cls-1" d="M334.527,142.328c.02.028.035.058.053.087C334.563,142.386,334.546,142.356,334.527,142.328Zm0,0" transform="translate(-326.385 -138.864)"/>
    <path id="Path_103" data-name="Path 103" class="cls-1" d="M218.215,100.07l.03-.008Zm0,0" transform="translate(-212.904 -97.627)"/>
    <path id="Path_104" data-name="Path 104" class="cls-1" d="M182.1,117.219c.025-.02.052-.039.078-.058C182.15,117.18,182.123,117.2,182.1,117.219Zm0,0" transform="translate(-177.666 -114.309)"/>
    <path id="Path_105" data-name="Path 105" class="cls-1" d="M328.484,262.711c-.019.026-.038.053-.058.078C328.447,262.763,328.464,262.737,328.484,262.711Zm0,0" transform="translate(-320.432 -256.317)"/>
    <path id="Path_106" data-name="Path 106" class="cls-1" d="M190.328,111.365c.028-.019.058-.035.087-.053C190.386,111.33,190.356,111.346,190.328,111.365Zm0,0" transform="translate(-185.696 -108.604)"/>
    <path id="Path_107" data-name="Path 107" class="cls-1" d="M199.2,106.709c.025-.013.051-.025.078-.037C199.249,106.684,199.223,106.7,199.2,106.709Zm0,0" transform="translate(-194.351 -104.076)"/>
    <path id="Path_108" data-name="Path 108" class="cls-1" d="M339.838,245.672c-.013.026-.024.052-.037.078C339.814,245.724,339.825,245.7,339.838,245.672Zm0,0" transform="translate(-331.531 -239.693)"/>
    <path id="Path_109" data-name="Path 109" class="cls-1" d="M334.58,254.113c-.017.029-.034.058-.053.087C334.547,254.171,334.564,254.142,334.58,254.113Zm0,0" transform="translate(-326.386 -247.928)"/>
    <path id="Path_110" data-name="Path 110" class="cls-1" d="M95.843,4.089h-.612A.579.579,0,0,1,94.68,3.7a3.674,3.674,0,0,0-.2-.477.58.58,0,0,1,.11-.669l.434-.435a.2.2,0,0,0,0-.275L94.2,1.012a.2.2,0,0,0-.275,0l-.435.434a.58.58,0,0,1-.669.11,3.66,3.66,0,0,0-.477-.2.579.579,0,0,1-.393-.551V.195A.2.2,0,0,0,91.754,0H90.586a.2.2,0,0,0-.195.195V.807A.579.579,0,0,1,90,1.358a3.676,3.676,0,0,0-.477.2.579.579,0,0,1-.669-.11l-.435-.434a.2.2,0,0,0-.275,0l-.826.826a.2.2,0,0,0,0,.275L88.7,3.5h.335a2.535,2.535,0,0,1,.342-.428,2.489,2.489,0,0,1,.186-.168c.025-.021.052-.039.078-.058s.08-.062.123-.09.058-.035.087-.053.084-.052.128-.076c.025-.014.051-.025.078-.037.049-.024.1-.048.15-.07l.057-.021c.058-.023.118-.044.179-.062l.03-.008a2.492,2.492,0,0,1,1.39,0l.03.008c.061.018.12.04.179.062.02.007.039.013.057.021.051.021.1.045.15.07.026.013.052.024.078.037.044.023.086.05.128.075s.058.034.087.053.082.058.123.09.053.038.078.058a2.509,2.509,0,0,1,.354.354c.021.025.039.052.058.078s.062.08.09.123.035.058.053.087.052.084.075.128c.013.025.025.051.037.078.024.049.048.1.07.15.008.019.014.039.021.057.023.058.044.118.062.179,0,.01,0,.019.008.03a2.492,2.492,0,0,1,0,1.39c0,.01,0,.019-.008.03-.018.061-.039.12-.062.179-.007.019-.013.039-.021.057-.021.051-.045.1-.07.15-.013.026-.024.052-.037.078-.023.044-.05.086-.076.128s-.034.058-.053.087-.058.082-.09.123-.037.052-.058.078a2.49,2.49,0,0,1-.168.186A2.535,2.535,0,0,1,92.533,7s0,.007,0,.011v.324l1.39,1.389a.2.2,0,0,0,.275,0l.826-.826a.2.2,0,0,0,0-.275l-.434-.435a.58.58,0,0,1-.11-.669,3.661,3.661,0,0,0,.2-.477.579.579,0,0,1,.551-.394h.612a.2.2,0,0,0,.195-.195V4.283a.2.2,0,0,0-.195-.195Zm0,0" transform="translate(-85.134)"/>
    <path id="Path_111" data-name="Path 111" class="cls-1" d="M287.5,103.816c.051.021.1.045.15.069C287.6,103.861,287.555,103.837,287.5,103.816Zm0,0" transform="translate(-280.507 -101.289)"/>
    <path id="Path_112" data-name="Path 112" class="cls-1" d="M296.84,108.2c.044.023.086.05.128.076C296.926,108.249,296.884,108.222,296.84,108.2Zm0,0" transform="translate(-289.615 -105.566)"/>
    <path id="Path_113" data-name="Path 113" class="cls-1" d="M210.848,100.445c.058-.023.119-.045.179-.063C210.966,100.4,210.907,100.423,210.848,100.445Zm0,0" transform="translate(-205.716 -97.94)"/>
    <path id="Path_114" data-name="Path 114" class="cls-1" d="M277.785,100.383c.061.018.12.04.179.063C277.905,100.423,277.846,100.4,277.785,100.383Zm0,0" transform="translate(-271.024 -97.94)"/>
    <path id="Path_115" data-name="Path 115" class="cls-1" d="M193.887,108.275c.043-.026.085-.053.128-.076C193.971,108.223,193.93,108.25,193.887,108.275Zm0,0" transform="translate(-189.168 -105.566)"/>
    <path id="Path_116" data-name="Path 116" class="cls-1" d="M185.289,113.563c.04-.031.081-.062.123-.09C185.369,113.5,185.33,113.532,185.289,113.563Zm0,0" transform="translate(-180.779 -110.711)"/>
    <path id="Path_117" data-name="Path 117" class="cls-1" d="M202.328,103.886c.05-.024.1-.049.15-.069C202.427,103.838,202.377,103.862,202.328,103.886Zm0,0" transform="translate(-197.404 -101.29)"/>
    <path id="Path_118" data-name="Path 118" class="cls-1" d="M174.465,119.727c.06-.06.122-.116.186-.168A2.466,2.466,0,0,0,174.465,119.727Zm0,0" transform="translate(-170.219 -116.649)"/>
    <path id="Path_119" data-name="Path 119" class="cls-1" d="M330.914,257.672c-.028.042-.058.082-.09.123C330.855,257.754,330.886,257.714,330.914,257.672Zm0,0" transform="translate(-322.772 -251.401)"/>
    <path id="Path_120" data-name="Path 120" class="cls-1" d="M341.4,239.5c-.021.051-.045.1-.07.15C341.353,239.6,341.377,239.555,341.4,239.5Zm0,0" transform="translate(-333.021 -233.675)"/>
    <path id="Path_121" data-name="Path 121" class="cls-1" d="M336.763,248.8c-.023.044-.05.086-.076.128C336.714,248.888,336.74,248.846,336.763,248.8Zm0,0" transform="translate(-328.493 -242.746)"/>
    <path id="Path_122" data-name="Path 122" class="cls-1" d="M305.672,113.473c.042.028.082.058.122.09C305.754,113.532,305.714,113.5,305.672,113.473Zm0,0" transform="translate(-298.232 -110.711)"/>
    <path id="Path_123" data-name="Path 123" class="cls-1" d="M347.938,172.832a2.493,2.493,0,0,0,0-1.39A2.551,2.551,0,0,1,347.938,172.832Zm0,0" transform="translate(-339.47 -167.269)"/>
    <path id="Path_124" data-name="Path 124" class="cls-1" d="M220.832,96.1a2.492,2.492,0,0,0-1.39,0A2.55,2.55,0,0,1,220.832,96.1Zm0,0" transform="translate(-214.101 -93.663)"/>
    <path id="Path_125" data-name="Path 125" class="cls-1" d="M321.7,265.9c-.053.064-.108.126-.168.186A2.5,2.5,0,0,0,321.7,265.9Zm0,0" transform="translate(-313.709 -259.43)"/>
    <path id="Path_126" data-name="Path 126" class="cls-1" d="M321.535,126.465c.06.06.115.122.168.186A2.479,2.479,0,0,0,321.535,126.465Zm0,0" transform="translate(-313.709 -123.387)"/>
    <path id="Path_127" data-name="Path 127" class="cls-1" d="M330.832,137.3c.031.041.062.081.09.122C330.894,137.377,330.863,137.337,330.832,137.3Zm0,0" transform="translate(-322.78 -133.956)"/>
    <path id="Path_128" data-name="Path 128" class="cls-1" d="M313.9,119.559c.064.053.126.108.186.168A2.469,2.469,0,0,0,313.9,119.559Zm0,0" transform="translate(-306.262 -116.649)"/>
    <path id="Path_129" data-name="Path 129" class="cls-1" d="M345.047,162.848c.023.058.045.119.063.179C345.091,162.966,345.07,162.907,345.047,162.848Zm0,0" transform="translate(-336.649 -158.885)"/>
    <path id="Path_130" data-name="Path 130" class="cls-1" d="M336.7,145.9c.026.042.052.084.076.128C336.747,145.986,336.721,145.944,336.7,145.9Zm0,0" transform="translate(-328.5 -142.351)"/>
    <path id="Path_131" data-name="Path 131" class="cls-1" d="M345.109,229.785c-.018.061-.039.12-.063.179C345.069,229.905,345.091,229.846,345.109,229.785Zm0,0" transform="translate(-336.649 -224.193)"/>
    <path id="Path_132" data-name="Path 132" class="cls-1" d="M341.328,154.328c.024.05.049.1.069.15C341.376,154.427,341.352,154.377,341.328,154.328Zm0,0" transform="translate(-333.021 -150.572)"/>
  </g>
</svg>
